<?xml version="1.0" encoding="utf-8"?>
<!-- Generator: Adobe Illustrator 24.2.1, SVG Export Plug-In . SVG Version: 6.00 Build 0)  -->
<svg version="1.1" id="Ebene_1" xmlns="http://www.w3.org/2000/svg" xmlns:xlink="http://www.w3.org/1999/xlink" x="0px" y="0px"
	 viewBox="0 0 850.4 126.4" style="enable-background:new 0 0 850.4 126.4;" xml:space="preserve">
<style type="text/css">
	.st0{fill:#FFFFFF;}
</style>
<g>
	<g>
		<g>
			<path class="st0" d="M198.2,77.9l-11.7-23.5c-2.2-4.4-6.6-16.1-6.6-16.1H179c0,0-4.4,11.7-6.6,16.1l-11.9,23.5L154.9,89
				l-8.1,16.3c-1,1.9-1.3,1.9-3.1,1.9h-9.5c-0.9,0-1.3-0.6-1.3-1s0.4-1.2,0.7-1.8l43.1-85.3h5.3l43.1,85.3c0.3,0.6,0.7,1.3,0.7,1.8
				s-0.4,1-1.3,1H215c-1.8,0-2.1,0-3.1-1.9L203.7,89L198.2,77.9z"/>
			<path class="st0" d="M247.6,107.2c-0.9,0-1.8-0.9-1.8-1.8V20.9c0-0.9,0.9-1.8,1.8-1.8h36.1c20.7,0,35.8,11.9,35.8,31.8
				c0,19.8-15.3,31.7-35.8,31.7h-25v22.7c0,0.9-0.9,1.8-1.8,1.8L247.6,107.2L247.6,107.2z M258.7,30.3v41.2h24.7
				c13.5,0,23.2-7.8,23.2-20.5c0-12.9-9.5-20.7-23.2-20.7H258.7z"/>
			<path class="st0" d="M435.1,63.2c0,28.5-21.3,45.5-47.6,45.5c-26.1,0-47.6-17-47.6-45.5s21.4-45.5,47.6-45.5
				C414,17.7,435.1,34.7,435.1,63.2z M352.9,63.2c0,21.4,15.7,34.3,34.6,34.3c19.2,0,34.6-12.9,34.6-34.3
				c0-21.7-15.3-34.3-34.6-34.3C368.6,28.8,352.9,41.5,352.9,63.2z"/>
			<path class="st0" d="M532.8,52.9c-1.6,0-2.2-0.4-2.3-2.5c-0.9-11.7-10.7-21.6-28.8-21.6c-18.9,0-33.2,12.6-33.2,34.3
				c0,21.4,14.2,34.3,33.2,34.3c17.9,0,27.6-8.5,28.8-20c0.1-2.2,0.6-2.6,2.5-2.6h8.2c0.9,0,2.3-0.3,2.3,1.2
				c0,17.5-15.4,32.6-41.8,32.6c-26.1,0-46.1-17-46.1-45.5s20-45.5,46.1-45.5c27.9,0,41.8,17.9,41.8,33.8c0,0.7-0.6,1.5-2.2,1.5
				L532.8,52.9L532.8,52.9z"/>
			<path class="st0" d="M572.3,20.9c0-0.9,0.9-1.8,1.8-1.8h37.6c20.7,0,35.8,10.3,35.8,28.9c0,14.2-9.1,23.2-22.6,26.6v0.3
				c0,0,3.1,2.8,5.6,6.3l16.7,23.2c0.9,1.2,1,1.6,1,1.9c0,0.6-0.3,0.9-1.2,0.9h-12c-0.7,0-1.6-0.4-2.1-1l-21.7-30.1h-26v29.4
				c0,0.9-0.9,1.8-1.8,1.8H574c-0.9,0-1.8-0.9-1.8-1.8V20.9H572.3z M585.2,30.3v35.4h26.1c13.5,0,23.2-6.2,23.2-17.6
				c0-11.6-9.5-17.8-23.2-17.8H585.2z"/>
			<path class="st0" d="M731.7,77.9L720,54.4c-2.2-4.4-6.6-16.1-6.6-16.1h-0.9c0,0-4.4,11.7-6.6,16.1L694,77.9L688.4,89l-8.1,16.3
				c-1,1.9-1.3,1.9-3.1,1.9h-9.5c-0.9,0-1.3-0.6-1.3-1s0.4-1.2,0.7-1.8l43.1-85.3h5.3l43.1,85.3c0.3,0.6,0.7,1.3,0.7,1.8
				s-0.4,1-1.3,1h-9.5c-1.8,0-2.1,0-3.1-1.9L737.2,89L731.7,77.9z"/>
			<path class="st0" d="M759.8,28.3v-7c0-0.9,1.2-2.1,2.1-2.1h82.5c0.9,0,2.1,1.2,2.1,2.1v7c0,0.9-1.2,2.1-2.1,2.1h-34.8v75.1
				c0,0.9-0.9,1.8-1.8,1.8h-9.4c-0.9,0-1.8-0.9-1.8-1.8V30.3h-34.8C761,30.3,759.8,29.1,759.8,28.3z"/>
		</g>
	</g>
	<g>
		<path class="st0" d="M52.2,118.7C25.7,118.7,4.1,99,4.1,74.9V53.5h11.6v21.4c0,17.8,16.3,32.2,36.4,32.2s36.4-14.4,36.4-32.2V53.5
			h11.6v21.4C100.3,99.1,78.7,118.7,52.2,118.7z"/>
		<path class="st0" d="M61.6,62.9c0-5.2-4.2-9.4-9.4-9.4s-9.4,4.2-9.4,9.4c0,3.6,2,6.7,4.9,8.3l-2.1,16.5c0,0,2.7,0,6.6,0
			c4,0,6.6,0,6.6,0l-2.6-16.3C59.4,69.9,61.6,66.7,61.6,62.9z"/>
		<polygon class="st0" points="89.4,25.8 89.4,8.2 77.8,8.2 77.8,20.1 52.2,7.6 4,31.8 4,44.9 52.2,20.6 100.5,44.2 100.5,31.2 		
			"/>
	</g>
</g>
</svg>
