<?xml version="1.0"?>
<svg xmlns="http://www.w3.org/2000/svg" xmlns:xlink="http://www.w3.org/1999/xlink" xmlns:svgjs="http://svgjs.com/svgjs" version="1.1" width="512" height="512" x="0" y="0" viewBox="0 0 512 512" style="enable-background:new 0 0 512 512" xml:space="preserve"><g><g xmlns="http://www.w3.org/2000/svg"><path d="m345.627 171.719c-8.782 5.817-19.299 9.215-30.599 9.215-17.077 0-32.373-7.749-42.575-19.908-16.943 21.417-44.935 35.439-76.541 35.439h-28.394c-8.284 0-15-6.716-15-15s6.716-15 15-15h28.394c28.824 0 53.228-16.161 60.978-38.235h-146.694c-9.626 0-17.457 7.831-17.457 17.457v94.95c0 45.529 43.654 82.569 97.312 82.569h37.803c8.284 0 15 6.716 15 15s-6.716 15-15 15h-37.804c-22.854 0-44.318-5.356-62.879-14.717v76.371h255.359v-212.323c-16.438-4.164-29.969-15.676-36.903-30.818z" fill="#ffffff" data-original="#000000" style=""/><path d="m127.171 98.231h51.143v-72.66c0-14.1-11.471-25.571-25.571-25.571s-25.571 11.471-25.571 25.571v72.66z" fill="#ffffff" data-original="#000000" style=""/><path d="m208.314 98.231h51.142v-72.66c0-14.1-11.471-25.571-25.571-25.571s-25.571 11.471-25.571 25.571z" fill="#ffffff" data-original="#000000" style=""/><path d="m315.027 23.302c-14.1 0-25.571 11.471-25.571 25.571v76.491c0 14.1 11.471 25.571 25.571 25.571s25.571-11.471 25.571-25.571v-76.491c.001-14.1-11.471-25.571-25.571-25.571z" fill="#ffffff" data-original="#000000" style=""/><path d="m396.17 46.603c-14.1 0-25.571 11.471-25.571 25.571v76.491c0 14.1 11.471 25.571 25.571 25.571s25.571-11.471 25.571-25.571v-76.491c0-14.1-11.471-25.571-25.571-25.571z" fill="#ffffff" data-original="#000000" style=""/><path d="m401.985 444.859h-294.27c-9.626 0-17.457 7.831-17.457 17.457v32.227c0 9.626 7.831 17.457 17.457 17.457h294.27c9.625 0 17.457-7.831 17.457-17.457v-32.227c0-9.626-7.831-17.457-17.457-17.457z" fill="#ffffff" data-original="#000000" style=""/></g></g></svg>
