<?xml version="1.0"?>
<svg xmlns="http://www.w3.org/2000/svg" xmlns:xlink="http://www.w3.org/1999/xlink" xmlns:svgjs="http://svgjs.com/svgjs" version="1.1" width="512" height="512" x="0" y="0" viewBox="0 0 490.667 490.667" style="enable-background:new 0 0 512 512" xml:space="preserve"><g><g xmlns="http://www.w3.org/2000/svg"><g><g><path d="m202.569 42.667c0-9.344 3.093-17.92 8.213-24.939-14.229-7.509-33.685-17.728-63.552-17.728-25.195 0-44.523 12.864-63.232 25.301-19.285 12.822-37.504 24.918-63.168 25.92-4.224.149-7.765 2.965-9.344 6.891-1.579 3.925-.491 8.555 2.453 11.563 43.776 44.843 107.328 70.805 188.629 77.611v-104.619z" fill="#ffffff" data-original="#000000" style=""/><path d="m437.236 213.333c-11.755 0-21.333 9.579-21.333 21.333 0 5.888-4.779 10.667-10.667 10.667s-10.667-4.779-10.667-10.667v-21.333c0-11.755-9.579-21.333-21.333-21.333s-21.333 9.579-21.333 21.333v10.667c0 5.888-4.779 10.667-10.667 10.667s-10.667-4.779-10.667-10.667v-32c0-11.755-9.579-21.333-21.333-21.333-11.755 0-21.333 9.579-21.333 21.333v53.333c0 5.888-4.779 10.667-10.667 10.667s-10.667-4.779-10.667-10.667v-202.666c0-11.755-9.579-21.333-21.333-21.333-11.755 0-21.333 9.579-21.333 21.333v273.557c0 14.059-11.477 25.515-25.579 25.515-6.72 0-13.099-2.667-17.92-7.509l-17.365-17.365c-16.192-16.192-43.072-18.816-61.888-6.741l143.893 143.893c23.595 23.637 55.019 36.651 88.427 36.651 68.992 0 125.099-56.107 125.099-125.099v-130.902c-.001-11.755-9.58-21.334-21.334-21.334z" fill="#ffffff" data-original="#000000" style=""/><path d="m479.134 57.92c-1.557-3.925-5.291-6.549-9.493-6.699-25.664-.981-43.883-13.099-63.168-25.92-18.709-12.437-38.059-25.301-63.232-25.301-29.867 0-49.323 10.219-63.531 17.728 5.099 7.019 8.192 15.595 8.192 24.939v104.597c81.301-6.805 144.853-32.768 188.971-77.952 2.944-3.008 3.84-7.488 2.261-11.392z" fill="#ffffff" data-original="#000000" style=""/></g></g></g><g xmlns="http://www.w3.org/2000/svg"/><g xmlns="http://www.w3.org/2000/svg"/><g xmlns="http://www.w3.org/2000/svg"/><g xmlns="http://www.w3.org/2000/svg"/><g xmlns="http://www.w3.org/2000/svg"/><g xmlns="http://www.w3.org/2000/svg"/><g xmlns="http://www.w3.org/2000/svg"/><g xmlns="http://www.w3.org/2000/svg"/><g xmlns="http://www.w3.org/2000/svg"/><g xmlns="http://www.w3.org/2000/svg"/><g xmlns="http://www.w3.org/2000/svg"/><g xmlns="http://www.w3.org/2000/svg"/><g xmlns="http://www.w3.org/2000/svg"/><g xmlns="http://www.w3.org/2000/svg"/><g xmlns="http://www.w3.org/2000/svg"/></g></svg>
