<?xml version="1.0"?>
<svg xmlns="http://www.w3.org/2000/svg" xmlns:xlink="http://www.w3.org/1999/xlink" xmlns:svgjs="http://svgjs.com/svgjs" version="1.1" width="512" height="512" x="0" y="0" viewBox="0 0 512 512" style="enable-background:new 0 0 512 512" xml:space="preserve" class=""><g><g xmlns="http://www.w3.org/2000/svg"><g><path d="m425.06 449.113h-37.038v-28.735h-264.044v28.735h-37.038c-8.307 0-15.042 6.716-15.042 15s6.734 15 15.042 15h338.12c8.307 0 15.042-6.716 15.042-15s-6.735-15-15.042-15z" fill="#0099cc" data-original="#000000" style="" class=""/></g><g><path d="m497.48 32.887h-482.96c-8.019 0-14.52 6.482-14.52 14.479v324.659c0 7.997 6.501 14.479 14.52 14.479h482.96c8.019 0 14.52-6.483 14.52-14.479v-324.659c0-7.997-6.501-14.479-14.52-14.479zm-226.66 309.357c-.845 6.686-6.258 12.085-12.962 12.927-9.84 1.237-18.115-7.015-16.874-16.827.845-6.686 6.259-12.084 12.963-12.926 9.838-1.236 18.112 7.014 16.873 16.826zm-14.82-62.413c-8.284 0-15-6.716-15-15s6.716-15 15-15 15 6.716 15 15-6.716 15-15 15zm51.252-43.331c-2.929 2.929-6.768 4.394-10.606 4.394s-7.678-1.464-10.606-4.394c-16.564-16.563-43.515-16.563-60.079 0-5.857 5.858-15.355 5.858-21.213 0s-5.858-15.355 0-21.213c28.261-28.261 74.244-28.261 102.505 0 5.857 5.858 5.857 15.356-.001 21.213zm38.578-38.577c-2.929 2.929-6.768 4.394-10.606 4.394s-7.678-1.464-10.606-4.394c-37.836-37.835-99.398-37.835-137.234 0-5.857 5.858-15.355 5.858-21.213 0s-5.858-15.355 0-21.213c49.532-49.533 130.128-49.533 179.66 0 5.857 5.858 5.857 15.355-.001 21.213z" fill="#0099cc" data-original="#000000" style="" class=""/></g></g></g></svg>
