<?xml version="1.0"?>
<svg xmlns="http://www.w3.org/2000/svg" xmlns:xlink="http://www.w3.org/1999/xlink" xmlns:svgjs="http://svgjs.com/svgjs" version="1.1" width="512" height="512" x="0" y="0" viewBox="0 0 294.414 294.414" style="enable-background:new 0 0 512 512" xml:space="preserve" class=""><g>
<g xmlns="http://www.w3.org/2000/svg">
	<path d="M147.207,43.115C91.6,43.115,39.32,64.771,0,104.092l16.971,16.971c34.787-34.788,81.04-53.947,130.236-53.947   c49.197,0,95.449,19.159,130.236,53.947l16.971-16.971C255.094,64.771,202.815,43.115,147.207,43.115z" fill="#ffffff" data-original="#000000" style="" class=""/>
	<path d="M44.812,148.903l16.971,16.971c22.817-22.818,53.154-35.385,85.425-35.385c32.269,0,62.607,12.566,85.425,35.385   l16.971-16.971c-27.351-27.351-63.715-42.414-102.395-42.414S72.162,121.551,44.812,148.903z" fill="#ffffff" data-original="#000000" style="" class=""/>
	<path d="M89.627,193.719l16.971,16.971c10.848-10.848,25.271-16.821,40.611-16.821c15.341,0,29.763,5.974,40.609,16.821   l16.971-16.971c-15.38-15.38-35.829-23.851-57.58-23.851C125.457,169.868,105.008,178.339,89.627,193.719z" fill="#ffffff" data-original="#000000" style="" class=""/>
	<circle cx="147.208" cy="237.299" r="14.001" fill="#ffffff" data-original="#000000" style="" class=""/>
</g>
<g xmlns="http://www.w3.org/2000/svg">
</g>
<g xmlns="http://www.w3.org/2000/svg">
</g>
<g xmlns="http://www.w3.org/2000/svg">
</g>
<g xmlns="http://www.w3.org/2000/svg">
</g>
<g xmlns="http://www.w3.org/2000/svg">
</g>
<g xmlns="http://www.w3.org/2000/svg">
</g>
<g xmlns="http://www.w3.org/2000/svg">
</g>
<g xmlns="http://www.w3.org/2000/svg">
</g>
<g xmlns="http://www.w3.org/2000/svg">
</g>
<g xmlns="http://www.w3.org/2000/svg">
</g>
<g xmlns="http://www.w3.org/2000/svg">
</g>
<g xmlns="http://www.w3.org/2000/svg">
</g>
<g xmlns="http://www.w3.org/2000/svg">
</g>
<g xmlns="http://www.w3.org/2000/svg">
</g>
<g xmlns="http://www.w3.org/2000/svg">
</g>
</g></svg>
