<svg fill="#F7B633" id="bold" enable-background="new 0 0 24 24" height="512" viewBox="0 0 24 24" width="512" xmlns="http://www.w3.org/2000/svg"><path d="m18 10c-.551 0-1-.449-1-1s.449-1 1-1 1 .449 1 1-.449 1-1 1z"/><path d="m14.518 6.577c-.297-.288-.304-.764-.016-1.061.93-.957 2.175-1.496 3.505-1.516 1.347.016 2.592.482 3.549 1.412.297.288.304.763.016 1.061s-.762.305-1.061.016c-.67-.65-1.553-.979-2.482-.988-.929.014-1.8.391-2.451 1.062-.288.295-.764.303-1.06.014z"/><path d="m12.256 3.814c-.312-.272-.344-.746-.071-1.058 1.521-1.74 3.57-2.719 5.77-2.756 2.211-.056 4.276.874 5.845 2.566.282.304.264.778-.04 1.06s-.777.263-1.06-.04c-1.275-1.375-2.953-2.133-4.72-2.086-1.771.029-3.427.826-4.666 2.242-.272.314-.748.345-1.058.072z"/><path d="m12 20.5c-5.013 0-8.64-.534-10.865-1.59 1.639 3.105 4.965 5.09 8.708 5.09h4.313c3.743 0 7.068-1.984 8.708-5.09-2.225 1.057-5.852 1.59-10.864 1.59z"/><path d="m19.972 11.243c-.529.465-1.214.757-1.972.757-1.237 0-2.3-.753-2.759-1.824-1.019-.112-2.098-.176-3.241-.176-7.065 0-12 2.239-12 5.444 0 3.209 8.392 3.556 12 3.556s12-.347 12-3.556c0-1.765-1.503-3.234-4.028-4.201zm-12.972 3.757c0 .553-.448 1-1 1s-1-.447-1-1v-1c0-.553.448-1 1-1s1 .447 1 1zm4 0c0 .553-.448 1-1 1s-1-.447-1-1v-1c0-.553.448-1 1-1s1 .447 1 1zm4 0c0 .553-.448 1-1 1s-1-.447-1-1v-1c0-.553.448-1 1-1s1 .447 1 1zm4 0c0 .553-.448 1-1 1s-1-.447-1-1v-1c0-.553.448-1 1-1s1 .447 1 1z"/></svg>